# xmcd
#
# Track frame offsets:
# 150
# 23485
# 40107
# 61585
# 77152
# 95062
# 111550
# 131425
# 148935
# 164492
# 179495
# 197902
# 220097
# 239842
# 256362
# 275755
# 289000
#
# Disc length: 4123 seconds
#
#
# Revision: 0
# Processed by: cddbd v1.5.1PL0 Copyright (c) Steve Scherf et al.
# Submitted via: FreeRIP 2.942 
#
DISCID=08101911
DTITLE=Vários 2 - 13 festival da Música Crioula de Santiago
DYEAR=1900
DGENRE=Country
TTITLE0=Eraci Rocha-Nas Varandas
TTITLE1=Cesar Passarinho-Alma a dentro
TTITLE2=Miguel Marques-Talvez
TTITLE3=Os Mateadores-Bailanta do Tio Amândio
TTITLE4=Jorge Guedes-Pra pastorejar a Pátria
TTITLE5=Antonio Gringo-Caminhos da integração
TTITLE6=Adair e Adriano de Freitas com Grupo Fronteira-Essa vida de músico
TTITLE7=Angela Gomes e Juliana Spanevello-Pequena elegia a um escravo combatente
TTITLE8=Ernesto Fagundes-Pai de fogo
TTITLE9=Alemão do M'Bororé-Coração nas Esporas
TTITLE10=Angelo franco-Prelúdio de Gratidão ao Patrão Maior
TTITLE11=Wilson Paim e Miguel Margues-Parceiros
TTITLE12=Flávio Hanseen-Nos Poemas de Aureliano
TTITLE13=João de Almeida Neto-Cancha de bocha
TTITLE14=Adair de Freitas e Grupo Fronteira-Para um Amigo
TTITLE15=Antonio Gringo-Tirania
TTITLE16=Antonio Ricardo-Chimarreando
EXTD=
EXTT0=
EXTT1=
EXTT2=
EXTT3=
EXTT4=
EXTT5=
EXTT6=
EXTT7=
EXTT8=
EXTT9=
EXTT10=
EXTT11=
EXTT12=
EXTT13=
EXTT14=
EXTT15=
EXTT16=
PLAYORDER=
